<?xml version="1.0" encoding="utf-8"?>
<!-- Generator: Adobe Illustrator 24.1.0, SVG Export Plug-In . SVG Version: 6.00 Build 0)  -->
<svg version="1.1" id="Calque_1" xmlns="http://www.w3.org/2000/svg" xmlns:xlink="http://www.w3.org/1999/xlink" x="0px" y="0px"
	 viewBox="0 0 205.9 186.7" style="enable-background:new 0 0 205.9 186.7;" xml:space="preserve">
<style type="text/css">
	.st0{fill:#FFFFFF;}
	.st1{clip-path:url(#SVGID_2_);}
	.st2{clip-path:url(#SVGID_4_);}
	.st3{clip-path:url(#SVGID_6_);}
	.st4{clip-path:url(#SVGID_8_);}
	.st5{clip-path:url(#SVGID_10_);}
	.st6{clip-path:url(#SVGID_12_);}
	.st7{clip-path:url(#SVGID_14_);}
	.st8{clip-path:url(#SVGID_16_);}
	.st9{clip-path:url(#SVGID_18_);}
	.st10{clip-path:url(#SVGID_20_);}
	.st11{clip-path:url(#SVGID_22_);}
	.st12{clip-path:url(#SVGID_24_);}
	.st13{clip-path:url(#SVGID_26_);}
	.st14{clip-path:url(#SVGID_28_);}
	.st15{clip-path:url(#SVGID_30_);}
	.st16{clip-path:url(#SVGID_32_);}
	.st17{clip-path:url(#SVGID_34_);}
	.st18{clip-path:url(#SVGID_36_);}
	.st19{clip-path:url(#SVGID_38_);}
	.st20{clip-path:url(#SVGID_40_);}
	.st21{clip-path:url(#SVGID_42_);}
	.st22{clip-path:url(#SVGID_44_);}
	.st23{clip-path:url(#SVGID_46_);fill:#273375;}
	.st24{clip-path:url(#SVGID_48_);fill:#E30613;}
	.st25{clip-path:url(#SVGID_50_);fill:#9D9D9C;}
</style>
<rect class="st0" width="205.9" height="186.7"/>
<g>
	<g>
		<defs>
			<rect id="SVGID_1_" x="24.3" y="24.3" width="157.2" height="138.1"/>
		</defs>
		<clipPath id="SVGID_2_">
			<use xlink:href="#SVGID_1_"  style="overflow:visible;"/>
		</clipPath>
		<path class="st1" d="M24.4,60.8H30c4,0,6.5,2.1,6.5,5.5c0,2.2-1.1,3.8-2.9,4.7l5.8,8.1H35l-5-7.4h-1.9v7.4h-3.7V60.8z M28.1,64
			v4.6h2.1c1.6,0,2.5-0.8,2.5-2.3c0-1.4-0.9-2.2-2.5-2.2L28.1,64L28.1,64z"/>
	</g>
	<g>
		<defs>
			<rect id="SVGID_3_" x="24.3" y="24.3" width="157.2" height="138.1"/>
		</defs>
		<clipPath id="SVGID_4_">
			<use xlink:href="#SVGID_3_"  style="overflow:visible;"/>
		</clipPath>
		<path class="st2" d="M41.6,60.8h10.7V64h-7v4.2h5.9v3.2h-5.9V76h7v3.2H41.6V60.8z M45.2,59.2l3-3.5H52l-3.4,3.5H45.2z"/>
	</g>
	<g>
		<defs>
			<rect id="SVGID_5_" x="24.3" y="24.3" width="157.2" height="138.1"/>
		</defs>
		<clipPath id="SVGID_6_">
			<use xlink:href="#SVGID_5_"  style="overflow:visible;"/>
		</clipPath>
		<path class="st3" d="M56.6,60.8h6c4,0,6.5,2.1,6.5,5.5c0,3.4-2.5,5.4-6.5,5.4h-2.3v7.4h-3.7V60.8z M60.3,64v4.6h2.5
			c1.6,0,2.5-0.8,2.5-2.3c0-1.4-0.9-2.2-2.5-2.2L60.3,64L60.3,64z"/>
	</g>
	<g>
		<defs>
			<rect id="SVGID_7_" x="24.3" y="24.3" width="157.2" height="138.1"/>
		</defs>
		<clipPath id="SVGID_8_">
			<use xlink:href="#SVGID_7_"  style="overflow:visible;"/>
		</clipPath>
		<path class="st4" d="M83,60.8h3.7v11.1c0,4.8-2.8,7.7-7.4,7.7s-7.4-2.9-7.4-7.7V60.8h3.7v11.5c0,2.5,1.4,3.9,3.7,3.9
			c2.3,0,3.7-1.4,3.7-3.9L83,60.8L83,60.8z"/>
	</g>
	<g>
		<defs>
			<rect id="SVGID_9_" x="24.3" y="24.3" width="157.2" height="138.1"/>
		</defs>
		<clipPath id="SVGID_10_">
			<use xlink:href="#SVGID_9_"  style="overflow:visible;"/>
		</clipPath>
		<path class="st5" d="M91.3,60.8h5.2c3.8,0,6.1,1.9,6.1,5c0,1.5-0.7,2.7-1.9,3.6c1.9,0.9,3,2.4,3,4.3c0,3.3-2.6,5.4-6.8,5.4h-5.6
			C91.3,79.1,91.3,60.8,91.3,60.8z M95.1,64v4h1.6c1.4,0,2.2-0.7,2.2-2c0-1.2-0.8-2-2.2-2H95.1z M95.1,71.2V76h2.1
			c1.7,0,2.8-0.9,2.8-2.4s-1-2.4-2.8-2.4H95.1z"/>
	</g>
	<g>
		<defs>
			<rect id="SVGID_11_" x="24.3" y="24.3" width="157.2" height="138.1"/>
		</defs>
		<clipPath id="SVGID_12_">
			<use xlink:href="#SVGID_11_"  style="overflow:visible;"/>
		</clipPath>
		<polygon class="st6" points="107.5,60.8 111.2,60.8 111.2,75.7 118.2,75.7 118.2,79.1 107.5,79.1 		"/>
	</g>
	<g>
		<defs>
			<rect id="SVGID_13_" x="24.3" y="24.3" width="157.2" height="138.1"/>
		</defs>
		<clipPath id="SVGID_14_">
			<use xlink:href="#SVGID_13_"  style="overflow:visible;"/>
		</clipPath>
		<rect x="121.5" y="60.8" class="st7" width="3.7" height="18.3"/>
	</g>
	<g>
		<defs>
			<rect id="SVGID_15_" x="24.3" y="24.3" width="157.2" height="138.1"/>
		</defs>
		<clipPath id="SVGID_16_">
			<use xlink:href="#SVGID_15_"  style="overflow:visible;"/>
		</clipPath>
		<path class="st8" d="M149.5,80.4c0.4,0,0.9-0.1,1.3-0.2v3.1c-0.6,0.2-1.1,0.3-1.9,0.3c-2,0-3.9-0.8-5.7-2.4l-2.2-1.9
			c-0.8,0.2-1.6,0.3-2.5,0.3c-5.8,0-9.7-4.4-9.7-9.7c0-5.2,4-9.7,9.7-9.7c5.8,0,9.7,4.4,9.7,9.7c0,3.1-1.4,5.9-3.6,7.6l1.1,1
			C147.1,79.9,148.4,80.4,149.5,80.4 M144.4,70c0-3.5-2.5-6.2-5.9-6.2c-3.5,0-5.9,2.7-5.9,6.2s2.5,6.2,5.9,6.2S144.4,73.5,144.4,70"
			/>
	</g>
	<g>
		<defs>
			<rect id="SVGID_17_" x="24.3" y="24.3" width="157.2" height="138.1"/>
		</defs>
		<clipPath id="SVGID_18_">
			<use xlink:href="#SVGID_17_"  style="overflow:visible;"/>
		</clipPath>
		<path class="st9" d="M162.6,60.8h3.7v11.1c0,4.8-2.8,7.7-7.4,7.7c-4.6,0-7.4-2.9-7.4-7.7V60.8h3.7v11.5c0,2.5,1.4,3.9,3.7,3.9
			s3.7-1.4,3.7-3.9V60.8z"/>
	</g>
	<g>
		<defs>
			<rect id="SVGID_19_" x="24.3" y="24.3" width="157.2" height="138.1"/>
		</defs>
		<clipPath id="SVGID_20_">
			<use xlink:href="#SVGID_19_"  style="overflow:visible;"/>
		</clipPath>
		<polygon class="st10" points="170.9,60.8 181.6,60.8 181.6,64 174.6,64 174.6,68.2 180.5,68.2 180.5,71.4 174.6,71.4 174.6,75.9 
			181.6,75.9 181.6,79.1 170.9,79.1 		"/>
	</g>
	<g>
		<defs>
			<rect id="SVGID_21_" x="24.3" y="24.3" width="157.2" height="138.1"/>
		</defs>
		<clipPath id="SVGID_22_">
			<use xlink:href="#SVGID_21_"  style="overflow:visible;"/>
		</clipPath>
		<polygon class="st11" points="24.4,87.2 35.1,87.2 35.1,90.4 28.1,90.4 28.1,94.6 34,94.6 34,97.8 28.1,97.8 28.1,105.5 
			24.4,105.5 		"/>
	</g>
	<g>
		<defs>
			<rect id="SVGID_23_" x="24.3" y="24.3" width="157.2" height="138.1"/>
		</defs>
		<clipPath id="SVGID_24_">
			<use xlink:href="#SVGID_23_"  style="overflow:visible;"/>
		</clipPath>
		<path class="st12" d="M38.3,87.2h5.6c4,0,6.5,2.1,6.5,5.5c0,2.2-1.1,3.8-2.9,4.7l5.8,8.1h-4.4L44,98.1h-2v7.4h-3.7V87.2z M42,90.4
			V95h2.1c1.6,0,2.5-0.8,2.5-2.3c0-1.4-0.9-2.2-2.5-2.2L42,90.4L42,90.4z"/>
	</g>
	<g>
		<defs>
			<rect id="SVGID_25_" x="24.3" y="24.3" width="157.2" height="138.1"/>
		</defs>
		<clipPath id="SVGID_26_">
			<use xlink:href="#SVGID_25_"  style="overflow:visible;"/>
		</clipPath>
		<path class="st13" d="M61,87.2h4.9l6.9,18.3h-3.9l-1.8-4.8h-7.3l-1.8,4.8h-3.9L61,87.2z M65.9,97.6l-2.5-6.9l-2.5,6.9H65.9z"/>
	</g>
	<g>
		<defs>
			<rect id="SVGID_27_" x="24.3" y="24.3" width="157.2" height="138.1"/>
		</defs>
		<clipPath id="SVGID_28_">
			<use xlink:href="#SVGID_27_"  style="overflow:visible;"/>
		</clipPath>
		<polygon class="st14" points="75.6,87.2 80.4,87.2 88.6,100.3 88.6,87.2 92.3,87.2 92.3,105.5 87.5,105.5 79.3,92.4 79.3,105.5 
			75.6,105.5 		"/>
	</g>
	<g>
		<defs>
			<rect id="SVGID_29_" x="24.3" y="24.3" width="157.2" height="138.1"/>
		</defs>
		<clipPath id="SVGID_30_">
			<use xlink:href="#SVGID_29_"  style="overflow:visible;"/>
		</clipPath>
		<path class="st15" d="M110.4,100.1l2.9,2.2c-1.4,1.9-3.6,3.3-6.3,3.6l-2.3,3.8h-3.3l2.3-3.8c-4.8-0.8-7.9-4.9-7.9-9.5
			c0-5.2,4-9.7,9.7-9.7c3.3,0,6,1.5,7.7,3.7l-2.9,2.3c-1-1.5-2.7-2.5-4.8-2.5c-3.5,0-5.9,2.7-5.9,6.2s2.5,6.2,5.9,6.2
			C107.7,102.6,109.3,101.5,110.4,100.1"/>
	</g>
	<g>
		<defs>
			<rect id="SVGID_31_" x="24.3" y="24.3" width="157.2" height="138.1"/>
		</defs>
		<clipPath id="SVGID_32_">
			<use xlink:href="#SVGID_31_"  style="overflow:visible;"/>
		</clipPath>
		<path class="st16" d="M121,87.2h4.9l6.9,18.3h-4l-1.8-4.8h-7.3l-1.8,4.8H114L121,87.2z M126,97.6l-2.5-6.9l-2.5,6.9H126z"/>
	</g>
	<g>
		<defs>
			<rect id="SVGID_33_" x="24.3" y="24.3" width="157.2" height="138.1"/>
		</defs>
		<clipPath id="SVGID_34_">
			<use xlink:href="#SVGID_33_"  style="overflow:visible;"/>
		</clipPath>
		<rect x="135.6" y="87.2" class="st17" width="3.7" height="18.3"/>
	</g>
	<g>
		<defs>
			<rect id="SVGID_35_" x="24.3" y="24.3" width="157.2" height="138.1"/>
		</defs>
		<clipPath id="SVGID_36_">
			<use xlink:href="#SVGID_35_"  style="overflow:visible;"/>
		</clipPath>
		<path class="st18" d="M145.5,100.5c1.1,1.4,2.6,2.2,4.1,2.2s2.4-0.8,2.4-2.1c0-3.3-8.4-2.5-8.4-8.6c0-2.9,2.4-5.3,5.9-5.3
			c2.7,0,4.9,1.2,6.4,3.1l-2.7,2.4c-1.1-1.4-2.3-2.3-3.7-2.3c-1.3,0-2.1,0.8-2.1,1.9c0,3.3,8.4,2.5,8.4,8.7
			c-0.1,3.4-2.7,5.5-6.1,5.5c-3.1,0-5.2-1.1-6.8-3.1L145.5,100.5z"/>
	</g>
	<g>
		<defs>
			<rect id="SVGID_37_" x="24.3" y="24.3" width="157.2" height="138.1"/>
		</defs>
		<clipPath id="SVGID_38_">
			<use xlink:href="#SVGID_37_"  style="overflow:visible;"/>
		</clipPath>
		<polygon class="st19" points="159.6,87.2 170.3,87.2 170.3,90.4 163.3,90.4 163.3,94.6 169.2,94.6 169.2,97.8 163.3,97.8 
			163.3,102.4 170.3,102.4 170.3,105.5 159.6,105.5 		"/>
	</g>
	<g>
		<defs>
			<rect id="SVGID_39_" x="24.3" y="24.3" width="157.2" height="138.1"/>
		</defs>
		<clipPath id="SVGID_40_">
			<use xlink:href="#SVGID_39_"  style="overflow:visible;"/>
		</clipPath>
		<path class="st20" d="M84,156.1c0.5,0,0.9,0.4,0.7,1.3l-2.3,0.5C82.8,156.9,83.4,156.1,84,156.1 M85.3,159.8h-0.5
			c-0.6,0.7-1.2,1.2-1.8,1.2c-0.6,0-1-0.4-1-1.2c0-0.3,0-0.7,0.1-1l3.7-1.2c0.7-1.7-0.1-2.5-1.2-2.5c-1.8,0-3.8,2.9-3.8,5.5
			c0,1.2,0.6,1.8,1.4,1.8C83.3,162.4,84.4,161.4,85.3,159.8 M84.5,154.4l2.6-2.4v-0.3h-1.4l-1.6,2.7H84.5z M76.5,156.1h1.2l-2,5.4
			c-0.2,0.5,0.1,0.9,0.5,0.9c1.1,0,2.9-1.1,3.5-2.6h-0.3c-0.5,0.5-1.5,1.2-2.3,1.4l1.8-5h1.8l0.2-0.8h-1.8l0.7-1.9h-0.7l-1.3,1.9
			l-1.5,0.2v0.5H76.5z M74.8,155.9c0.1-0.5-0.2-0.8-0.4-0.8c-1.1,0-2.3,1-2.9,2.3h0.3c0.3-0.5,0.9-1,1.5-1.1l-2.1,5.3
			c-0.2,0.5,0.2,0.8,0.4,0.8c1,0,2.2-1,2.7-2.3H74c-0.3,0.5-0.9,1-1.5,1.1L74.8,155.9z M75.2,153.2c0.5,0,0.9-0.4,0.9-0.9
			s-0.4-0.9-0.9-0.9s-0.9,0.4-0.9,0.9C74.3,152.8,74.7,153.2,75.2,153.2 M63.4,161.4c-0.3,0.6,0,1,0.6,1c0.4,0,0.5-0.1,0.7-0.5
			l1.4-3.8c0.7-0.8,2-1.7,2.6-1.7c0.4,0,0.3,0.3,0.1,0.8l-2.2,4.2c-0.2,0.4,0.1,0.9,0.5,0.9c1.1,0,2.4-1,2.9-2.3h-0.3
			c-0.3,0.5-0.9,1-1.5,1.1l1.9-3.8c0.2-0.5,0.4-0.9,0.4-1.3c0-0.6-0.3-1-1-1c-0.9,0-1.9,1-3,2.3v-1c0-0.7-0.2-1.3-0.9-1.3
			c-0.4,0-0.8,0.3-1.2,0.8v0.1c0.7,0,1,1,0.5,2.1L63.4,161.4z M63.3,156.7c0.3-0.9,0.1-1.6-0.6-1.6c-0.8,0-1,0.6-1.8,2.3v-1
			c0-0.7-0.2-1.3-0.9-1.3c-0.8,0-1.4,1.2-2,2.3h0.3c0.4-0.5,0.7-0.8,1-0.8s0.5,0.5,0,1.6l-1.5,3.2c-0.3,0.6,0,1,0.6,1
			c0.4,0,0.5-0.1,0.7-0.5l1.4-3.8c0.4-0.5,0.8-0.9,1.2-1.4H63.3z M55.1,156.1c0.5,0,0.9,0.4,0.7,1.3l-2.3,0.5
			C53.9,156.9,54.6,156.1,55.1,156.1 M56.4,159.8h-0.5c-0.6,0.7-1.2,1.2-1.8,1.2s-1-0.4-1-1.2c0-0.3,0-0.7,0.1-1l3.7-1.2
			c0.7-1.7-0.1-2.5-1.2-2.5c-1.8,0-3.8,2.9-3.8,5.5c0,1.2,0.6,1.8,1.4,1.8C54.5,162.4,55.5,161.4,56.4,159.8 M47.6,156.1h1.2l-2,5.4
			c-0.2,0.5,0.1,0.9,0.5,0.9c1.1,0,2.9-1.1,3.5-2.6h-0.3c-0.5,0.5-1.5,1.2-2.3,1.4l1.8-5h2l0.2-0.8h-1.8l0.7-1.9h-0.7l-1.3,1.9
			l-1.5,0.2C47.6,155.6,47.6,156.1,47.6,156.1z M40.8,160.3c0-1.7,1.8-3.9,2.9-3.9c0.2,0,0.4,0,0.6,0.1l-1.1,2.9
			c-0.6,0.8-1.6,1.7-2,1.7C41,161,40.8,160.8,40.8,160.3 M46.5,154.8h-0.6l-0.6,0.6h-0.1c-3.1,0-5.7,3.4-5.7,5.9
			c0,0.7,0.4,1.1,1.1,1.1c0.8,0,1.6-1.1,2.4-2.3v0.4c-0.1,1.2,0.3,1.9,0.9,1.9c0.8,0,1.4-1.2,2-2.3h-0.3c-0.4,0.5-0.7,0.8-1,0.8
			s-0.5-0.5,0-1.6L46.5,154.8z M39.9,156.7c0.3-0.9,0.1-1.6-0.6-1.6c-0.8,0-1,0.6-1.8,2.3v-1c0-0.7-0.2-1.3-0.9-1.3
			c-0.8,0-1.4,1.2-2,2.3h0.3c0.4-0.5,0.7-0.8,1-0.8s0.5,0.5,0,1.6l-1.5,3.2c-0.3,0.6,0,1,0.6,1c0.4,0,0.5-0.1,0.7-0.5l1.4-3.8
			c0.4-0.5,0.8-0.9,1.2-1.4H39.9z M29.7,162.1l0.1-0.4c-1.8-0.3-2-0.3-1.3-2.3l0.7-2h2c0.9,0,0.9,0.4,0.8,1.3h0.5l1.2-3.2h-0.5
			c-0.4,0.8-0.8,1.3-1.8,1.3h-1.9l1-2.8c0.3-0.9,0.5-1.1,1.7-1.1H33c1.2,0,1.4,0.3,1.4,1.6h0.5l0.4-2.2h-7.4l-0.1,0.4
			c1.4,0.3,1.6,0.4,0.9,2.3l-1.6,4.4c-0.7,1.8-1,2-2.6,2.3l-0.1,0.4H29.7z"/>
	</g>
	<g>
		<defs>
			<rect id="SVGID_41_" x="24.3" y="24.3" width="157.2" height="138.1"/>
		</defs>
		<clipPath id="SVGID_42_">
			<use xlink:href="#SVGID_41_"  style="overflow:visible;"/>
		</clipPath>
		<path class="st21" d="M66,139.3c0.5,0,0.9,0.4,0.7,1.3l-2.3,0.5C64.8,140.1,65.5,139.3,66,139.3 M67.3,143h-0.5
			c-0.6,0.7-1.2,1.2-1.8,1.2c-0.6,0-1-0.4-1-1.2c0-0.3,0-0.7,0.1-1l3.7-1.2c0.7-1.7-0.1-2.5-1.2-2.5c-1.8,0-3.8,2.9-3.8,5.5
			c0,1.2,0.6,1.8,1.4,1.8C65.4,145.6,66.4,144.6,67.3,143 M66.5,137.6l2.6-2.4v-0.3h-1.4l-1.6,2.7H66.5z M58.5,139.3h1.2l-2,5.4
			c-0.2,0.5,0.1,0.9,0.5,0.9c1.1,0,2.9-1.1,3.5-2.6h-0.3c-0.5,0.5-1.5,1.2-2.3,1.4l1.8-5h1.8l0.2-0.8h-1.8l0.7-1.9h-0.7l-1.3,1.9
			l-1.5,0.2v0.5H58.5z M56.8,139.1c0.1-0.5-0.2-0.8-0.4-0.8c-1.1,0-2.3,1-2.9,2.3h0.3c0.3-0.5,0.9-1,1.5-1.1l-2.1,5.3
			c-0.2,0.5,0.2,0.8,0.4,0.8c1,0,2.2-1,2.7-2.3H56c-0.3,0.5-0.9,1-1.5,1.1L56.8,139.1z M57.2,136.4c0.5,0,0.9-0.4,0.9-0.9
			s-0.4-0.9-0.9-0.9s-0.9,0.4-0.9,0.9S56.7,136.4,57.2,136.4 M50.1,144.4l3.7-9.8l-0.1-0.1l-2.3,0.3v0.3l0.5,0.3
			c0.4,0.3,0.3,0.6-0.1,1.6l-2.9,7.7c-0.2,0.4,0.1,0.9,0.5,0.9c1.1,0,2.2-1,2.7-2.3h-0.3C51.3,143.8,50.6,144.3,50.1,144.4
			 M43,143.5c0-1.7,1.8-3.9,2.9-3.9c0.2,0,0.4,0,0.6,0.1l-1.1,2.9c-0.6,0.8-1.6,1.7-2,1.7C43.1,144.2,43,144,43,143.5 M48.6,138H48
			l-0.6,0.6h-0.1c-3.1,0-5.7,3.4-5.7,5.9c0,0.7,0.4,1.1,1.1,1.1c0.8,0,1.6-1.1,2.4-2.3v0.4c-0.1,1.2,0.3,1.9,0.9,1.9
			c0.8,0,1.4-1.2,2-2.3h-0.3c-0.4,0.5-0.7,0.8-1,0.8s-0.5-0.5,0-1.6L48.6,138z M34.9,146.9c0-0.7,0.7-1.2,1.7-1.5
			c0.3,0.2,0.8,0.3,1.4,0.6c1,0.3,1.4,0.5,1.4,0.8c0,0.7-1.1,1.2-2.6,1.2C35.6,147.9,34.9,147.6,34.9,146.9 M37.7,142.6
			c-0.4,0-0.6-0.4-0.6-0.8c0-1.2,0.6-3,1.7-3c0.4,0,0.6,0.4,0.6,0.8C39.4,140.8,38.7,142.6,37.7,142.6 M40.6,146.3
			c0-0.9-0.8-1.2-2-1.5c-1.1-0.3-1.6-0.4-1.6-0.8c0-0.3,0.2-0.6,0.7-0.9c1.8-0.1,2.9-1.7,2.9-3c0-0.3-0.1-0.5-0.1-0.7H42l0.2-0.8
			h-2.4c-0.3-0.2-0.6-0.3-1-0.3c-1.9,0-3.1,1.6-3.1,3c0,1,0.6,1.6,1.4,1.8c-0.9,0.4-1.4,0.8-1.4,1.4c0,0.3,0.1,0.5,0.4,0.7
			c-2,0.6-2.8,1.3-2.8,2.2s1.2,1.3,2.7,1.3C38.6,148.7,40.6,147.4,40.6,146.3 M31.2,140.5c0.9,0,0.9,0.4,0.8,1.3h0.5l1.2-3.2h-0.5
			c-0.4,0.8-0.8,1.3-1.8,1.3h-1.9l1-2.7c0.3-0.9,0.5-1.1,1.7-1.1H33c1.2,0,1.4,0.3,1.4,1.6h0.5l0.4-2.2h-7.4l-0.1,0.4
			c1.4,0.3,1.6,0.4,0.9,2.3l-1.6,4.4c-0.7,1.8-1,2-2.6,2.3l-0.1,0.4h8.2l1.5-2.3h-0.6c-0.9,0.9-2.1,1.7-3.8,1.7
			c-2.2,0-2-0.1-1.3-2.1l0.8-2.1L31.2,140.5L31.2,140.5z M32.3,134.9l2.6-1.8v-0.3h-1.6l-1.4,2.1H32.3z"/>
	</g>
	<g>
		<defs>
			<rect id="SVGID_43_" x="24.3" y="24.3" width="157.2" height="138.1"/>
		</defs>
		<clipPath id="SVGID_44_">
			<use xlink:href="#SVGID_43_"  style="overflow:visible;"/>
		</clipPath>
		<path class="st22" d="M65.1,122.5c0.5,0,0.9,0.4,0.7,1.3l-2.3,0.5C63.9,123.3,64.6,122.5,65.1,122.5 M66.4,126.2h-0.5
			c-0.6,0.7-1.2,1.2-1.8,1.2c-0.6,0-1-0.4-1-1.2c0-0.4,0-0.7,0.1-1L67,124c0.7-1.7-0.1-2.5-1.2-2.5c-1.8,0-3.8,2.9-3.8,5.5
			c0,1.2,0.6,1.8,1.4,1.8C64.5,128.8,65.5,127.9,66.4,126.2 M65.7,120.8l2.6-2.4v-0.3h-1.4l-1.6,2.7
			C65.3,120.8,65.7,120.8,65.7,120.8z M58,122.6h1l-2,5.4c-0.2,0.5,0.1,0.9,0.5,0.9c1.1,0,2.9-1.1,3.5-2.6h-0.3
			c-0.5,0.5-1.4,1.2-2.3,1.4l1.8-5H62l0.2-0.8h-1.8l0.7-1.9h-0.7l-1.3,1.9L58,122V122.6z M57,123.2c0.3-0.9,0.1-1.6-0.6-1.6
			c-0.8,0-1,0.6-1.8,2.3v-1c0-0.7-0.2-1.3-0.9-1.3c-0.8,0-1.4,1.2-2,2.3H52c0.4-0.5,0.7-0.8,1-0.8s0.5,0.5,0,1.6l-1.4,3.2
			c-0.3,0.6,0,1,0.6,1c0.4,0,0.5-0.1,0.7-0.5l1.4-3.8c0.4-0.5,0.8-0.9,1.2-1.4C55.5,123.2,57,123.2,57,123.2z M48.8,122.5
			c0.5,0,0.9,0.4,0.7,1.3l-2.3,0.5C47.5,123.3,48.2,122.5,48.8,122.5 M50,126.2h-0.5c-0.6,0.7-1.2,1.2-1.8,1.2s-1-0.4-1-1.2
			c0-0.4,0-0.7,0.1-1l3.7-1.2c0.7-1.7-0.1-2.5-1.2-2.5c-1.8,0-3.8,2.9-3.8,5.5c0,1.2,0.6,1.8,1.4,1.8
			C48.1,128.8,49.2,127.9,50,126.2 M40.9,127.7c-0.4,0-0.9-0.3-0.9-0.6c0-0.1,0.2-0.5,0.4-1l0.6-1.6c0.6-0.8,1.6-1.6,2.2-1.6
			c0.3,0,0.6,0.2,0.6,0.7C43.8,125.1,42.4,127.7,40.9,127.7 M45.1,123c0-1.1-0.4-1.5-1.2-1.5c-0.9,0-1.8,1-2.7,2.2l2.2-5.9l-0.1-0.1
			L41,118v0.3l0.5,0.3c0.4,0.3,0.3,0.7-0.1,1.6l-2.4,6.2c-0.2,0.5-0.4,1-0.4,1.1c0,0.6,0.9,1.2,1.7,1.2
			C42.1,128.8,45.1,125.5,45.1,123 M37.8,122.3c0.1-0.5-0.2-0.8-0.4-0.8c-1.1,0-2.3,1-2.9,2.3h0.3c0.3-0.5,0.9-1,1.5-1.1l-2.1,5.3
			c-0.2,0.5,0.2,0.8,0.4,0.8c1,0,2.2-1,2.7-2.3H37c-0.3,0.5-0.9,1-1.5,1.1L37.8,122.3z M38.2,119.6c0.5,0,0.9-0.4,0.9-0.9
			s-0.4-0.9-0.9-0.9s-0.9,0.4-0.9,0.9S37.7,119.6,38.2,119.6 M32.8,118.8h-4.9l-0.1,0.4c1.4,0.3,1.6,0.4,0.9,2.3l-1.6,4.4
			c-0.7,1.8-1,2-2.6,2.3l-0.1,0.4h7.4l1.6-2.9h-0.6c-0.9,1-2,2.3-3.6,2.3c-1.2,0-1.4-0.2-0.7-2.1l1.6-4.4c0.7-1.8,1-2,2.6-2.3
			L32.8,118.8z"/>
	</g>
	<g>
		<defs>
			<rect id="SVGID_45_" x="24.3" y="24.3" width="157.2" height="138.1"/>
		</defs>
		<clipPath id="SVGID_46_">
			<use xlink:href="#SVGID_45_"  style="overflow:visible;"/>
		</clipPath>
		<path class="st23" d="M52,45.8c0.3-0.3,0.5-0.5,0.8-0.8l0,0c0.5-0.6,1-1.1,1.5-1.6c0.2-0.2,0.3-0.3,0.5-0.4c0,0,0-0.1,0.1-0.2
			c-0.2,0.1-0.4,0.3-0.6,0.4c0,0-0.1,0,0-0.1c0.2-0.1,0.3-0.2,0.5-0.4l0,0c0,0,0,0,0-0.1c-0.6-0.1-1.1,0.3-1.5,0.7
			c-0.1,0-0.2,0-0.2,0c-0.7,0.2-1.2,0.8-1.9,1.1v-0.1c-0.3,0.1-0.5,0.3-0.8,0.3c-0.4,0.1-0.8,0-1.1,0c-0.6,0.1-1.1,0.2-1.7,0.3l0,0
			c-0.3,0.1-0.6,0.2-0.9,0.3l0,0c0,0,0,0.1-0.1,0.1c-0.1,0.1-0.2,0.2-0.3,0.3c-0.3,0.1-0.5,0.4-0.8,0.6c0,0,0,0-0.1,0
			c-0.2,0.2-0.5,0.5-0.7,0.7h-0.1l0,0l0,0c0-0.1,0.1-0.1,0.1-0.2c0-0.1,0.1-0.1,0.1-0.2c0.1-0.1,0.1-0.2,0.2-0.3c0,0,0,0,0-0.1
			c0,0,0,0-0.1,0c0.2-0.2,0.5-0.4,0.8-0.6l0,0h-0.1l0.1-0.1l0,0l0,0c-0.1,0-0.2,0.1-0.2,0.2c-0.1,0.1-0.2,0.3-0.4,0.3c0,0,0,0-0.1,0
			l0,0l0,0l0,0l0,0l0,0l0,0l0,0c0,0,0,0,0-0.1l0,0c0,0,0-0.1,0.1-0.1l0,0v-0.1v-0.1c0.1-0.1,0.2-0.2,0.3-0.3l0,0
			c0.2-0.1,0.4-0.2,0.5-0.3c0,0,0.1,0,0.1-0.1c-0.3,0.1-0.5,0.2-0.7,0.4h-0.1h-0.1l0,0c0-0.1,0.2-0.1,0.3-0.2h0.1
			c1.5-1.1,3.5-0.9,5.2-1.5c0.1-0.1,0.3-0.2,0.4-0.3c0.2-0.1,0.4-0.3,0.7-0.5c0.4-0.3,0.6-0.6,0.8-1.1v-0.1c-0.6,0.6-1.3,1.1-2,1.5
			c-1,0.5-2,0.4-3,0.6c0-0.1,0.1-0.1,0.2-0.1c0-0.1,0.1-0.2,0.2-0.3l0,0c0,0,0-0.1,0.1-0.1s0.2,0,0.2,0c-0.1-0.2-0.4,0.1-0.6,0
			c0.1-0.1,0-0.2,0.1-0.3H48c0-0.1,0.1-0.2,0.1-0.2c0.7-0.4,1.3-0.7,2-1.1c-0.1,0-0.2,0.1-0.4,0c0.1,0,0-0.1,0.1-0.1
			c0.5-0.1,0.9-0.4,1.4-0.6c-0.2,0-0.3,0.1-0.5,0c0.1,0,0.1-0.1,0.3-0.1v-0.1c0,0,0,0,0.1,0H51c0-0.1,0.2,0,0.3-0.1h-0.1
			c0.1-0.2,0.4-0.2,0.6-0.3c0-0.1-0.2,0-0.2-0.1c0,0,0,0,0.1,0h-0.1c-0.1,0,0-0.1,0-0.2c0.3-0.3,0.3-0.7,0.4-1.1h-0.1
			c-0.5,0.5-1.2,0.7-1.9,0.9h-0.2c-0.2,0.1-0.6,0.1-0.8,0s-0.3-0.2-0.5-0.4c-0.4-0.2-0.7-0.4-1.1-0.6c-1.1-0.4-2.3-0.6-3.5-0.5
			c0.5-0.3,1.1-0.3,1.6-0.5c0.8-0.2,1.5-0.5,2.3-0.5c-0.1,0-0.3,0-0.5,0c-0.6,0-1.3,0.1-2,0.3c-0.5,0.1-0.9,0.3-1.3,0.4
			c-0.3,0.1-0.4,0.4-0.7,0.3v-0.1c0.5-0.6,1-1.1,1.7-1.1c0.8-0.1,1.6,0,2.4,0.1c0.6,0,1.1,0.2,1.7,0.3c0.2,0,0.3,0.4,0.5,0.4
			c0.3,0.1,0.6,0,0.8,0.2c0-0.1,0-0.2,0-0.3c0.2-0.2,0.4,0,0.6,0c0.4-0.2-0.3-0.6-0.5-1v-0.1c0.4,0.3,0.6,0.7,1.1,0.9
			c0.2,0.1,0.8,0.2,0.7,0c-0.2-0.5-0.7-0.9-1.1-1.4v-0.2c-0.1,0-0.1,0-0.1-0.1v-0.2c-0.2-0.1-0.1-0.3-0.2-0.4
			c-0.1-0.2,0-0.6-0.1-0.8c-0.1-0.3-0.1-0.5-0.2-0.8c-0.1-0.8-0.3-1.5-0.4-2.2c-0.1-0.9,0.5-1.6,0.9-2.3c0.3-0.6,0.7-1.1,1.3-1.5
			c0.1-0.6,0.5-1,0.9-1.5c0.4-0.4,1-0.7,1.4-0.9c0.6-0.3,1.2-0.5,1.2-0.5H24.3V49h22.3c0.9-0.6,1.7-0.9,3-1.5
			C50.2,46.8,51.5,46.2,52,45.8 M44.9,42.5c-0.1,0-0.3,0-0.2,0c0-0.2,0.4-0.2,0.6-0.3c0.1,0,0.2-0.1,0.3-0.1
			c0.1,0.1,0.2,0.1,0.3,0.2C45.6,42.5,45.2,42.3,44.9,42.5 M37.9,41.5C37.9,41.5,37.8,41.4,37.9,41.5c0.6-0.9,1-1.6,1.4-2.4
			c0.6-0.3,1.1-0.8,1.6-1.3c0.8-0.8,1.6-1.6,2.6-2c0.4-0.1,0.8-0.1,1.2,0c-0.1,0.2-0.4,0.1-0.6,0.3H44V36c-0.5,0.5-1.1,0.7-1.5,1.3
			c-0.3,0.5-0.5,1.1-1.1,1.2c-0.2,0,0-0.1,0-0.1C40,39.2,39,40.2,37.9,41.5 M41.7,38.4c0,0.1-0.1,0.1-0.1,0.2c0,0.1-0.1,0.1-0.2,0.2
			h-0.1C41.3,38.6,41.5,38.4,41.7,38.4C41.7,38.3,41.7,38.4,41.7,38.4 M43.8,45.3C43.8,45.4,43.7,45.4,43.8,45.3c0,0.1,0,0.1,0,0.2
			c-0.1,0.1-0.2,0.2-0.3,0.2c0,0,0,0-0.1,0c-0.1,0.1-0.1,0.1-0.2,0.2c-0.1,0-0.3,0-0.2-0.1s0.2-0.2,0.3-0.3s0.1-0.1,0.2-0.2l0.1-0.1
			C43.6,45.3,43.9,45.2,43.8,45.3 M43,44.9L43,44.9c-0.2,0.1-0.4,0.3-0.5,0.4c-0.2,0.1-0.4,0.2-0.6,0.3l0,0c0,0,0,0-0.1,0
			c-0.2,0.1-0.3,0.2-0.5,0.4c0,0,0,0-0.1,0.1l0,0l0,0c0,0,0,0-0.1,0.1l0,0l0,0L41,46.3c0,0,0,0-0.1,0.1h-0.1l0,0h-0.1c0,0,0,0-0.1,0
			l0,0l0,0c-0.1,0-0.1,0.1-0.2,0.1c-0.1,0.1-0.2,0.2-0.3,0.3l0,0l0,0l0,0l0,0l0,0l0,0l0,0l0,0l0,0l0,0c0,0,0,0,0-0.1l0,0l0,0
			c0-0.1,0.1-0.1,0.1-0.2l0,0c0,0,0,0,0-0.1l0.1-0.1l0,0c0.1-0.1,0.1-0.1,0.1-0.2l0,0l0,0c0,0,0-0.1,0.1-0.1c0,0,0-0.1,0.1-0.1l0,0
			l0,0l0,0v-0.1l0,0l0,0c0,0,0,0,0-0.1l0,0c0,0,0,0,0-0.1l0,0c0.1-0.1,0.1-0.2,0.2-0.2l0,0c-0.1,0-0.1,0.1-0.2,0.1
			c0,0-0.1,0-0.1-0.1l0.1-0.1l0,0c0.1-0.1,0.1-0.2,0.2-0.2c0.1,0,0.1-0.1,0.1-0.1l0,0l0.1-0.1l0,0c0.4-0.4,1.2-0.4,1.8-0.7
			c0.2-0.1,0.5,0,0.7,0c0.1,0,0.3,0,0.4,0.1C43.8,44.4,43.4,44.7,43,44.9 M43.9,41.7c0,0,0.1,0,0.2-0.1h-0.4c0,0,0,0,0-0.1
			c-0.2,0-0.5,0.1-0.7,0.2c-0.3,0.1-0.6,0.3-1,0.4c-0.5,0.2-0.9,0.6-1.5,0.8c0,0,0,0,0-0.1s0.2-0.2,0.3-0.3v-0.1
			c0.4-0.5,0.9-0.8,1.3-1.2v-0.1c0.1-0.2,0.4-0.3,0.5-0.5c0-0.1,0.2-0.3,0.5-0.4c0,0-0.1,0-0.1-0.1c-0.2,0-0.4,0.1-0.6,0
			c0.1-0.1,0.2-0.1,0.3-0.2c0,0-0.1,0-0.1-0.1s0.1-0.2,0.2-0.2c0.2,0,0.4,0,0.6-0.2c-0.3,0-0.7,0.1-1-0.1c0.2-0.6,0.6-1.1,1.2-1.4
			h0.1c0,0.2-0.1,0.4-0.4,0.5c0.4,0.1,0.7,0.1,1.1,0.3c0,0.1-0.1,0-0.2,0c0.2,0.1,0.5,0,0.7,0.2c-0.1,0.1-0.3,0-0.4,0
			c1.4,0.4,2.9,0.7,4.1,1.7c-1,0.5-2.1,0.7-3.2,1c-0.1,0-0.2,0-0.4,0v0.1c-0.2,0-0.3,0-0.5,0.1C44.3,41.8,44.1,41.9,43.9,41.7"/>
	</g>
	<g>
		<defs>
			<rect id="SVGID_47_" x="24.3" y="24.3" width="157.2" height="138.1"/>
		</defs>
		<clipPath id="SVGID_48_">
			<use xlink:href="#SVGID_47_"  style="overflow:visible;"/>
		</clipPath>
		<path class="st24" d="M91.2,24.3H65c0,0,0,0,0.2,0.1s0.5,0.3,0.7,0.4c0.3,0.2,0.7,0.4,0.9,0.7c0.1,0.1,0.2,0.4,0.1,0.6
			s-0.1,0.6-0.4,0.7s-0.6,0.1-1,0.1c-0.2,0-0.4,0-0.6-0.1c0.7,0.3,1.3,0.6,1.8,1.2c0,0.1,0.2,0.1,0.4,0.1v0.1
			c-0.1,0.1-0.2,0.1-0.1,0.3h0.1c0.2-0.1,0.2-0.6,0.5-0.4c0.2,0.1,0.3,0.5,0.2,0.7c-0.2,0.2-0.4,0.3-0.6,0.5c0,0.1,0,0.2,0,0.3
			c0.1,0.2,0.2,0.4,0.2,0.6c0.1,0.3,0.2,0.7,0.3,1c0.2,0.7,0.4,1.4,0.3,2.1c0,0.4-0.2,0.7,0,1.1c0.1,0.4,0.3,0.6,0.5,1
			c0.2,0.3,0.4,0.5,0.5,0.7c0.3,0.5,0.8,0.9,0.6,1.5c-0.1,0.3-0.6,0.3-1,0.5c-0.3,0.2,0,0.6,0.1,0.8c0.2,0.4-0.3,0.7-0.6,0.8
			c0.1,0.1,0.3,0.1,0.3,0.2c0,0.2,0.3,0.4,0.1,0.6c-0.2,0.3-0.7,0.4-0.5,0.8c0.2,0.3,0.1,0.7,0,1c-0.1,0.4-0.5,0.6-0.8,0.7
			c-0.3,0.1-0.6,0.1-0.9,0c-0.1,0-0.2-0.1-0.3-0.1c-0.8-0.1-1.6-0.3-2.3-0.3c-0.2,0-0.5,0.1-0.6,0.2c-0.2,0.2-0.4,0.3-0.6,0.5l0,0
			l-0.1,0.1c0,0,0,0-0.1,0.1l0,0c-0.1,0.2-0.3,0.3-0.4,0.5l0,0c0,0,0,0,0,0.1c-0.2,0.3-0.3,0.6-0.3,0.8c-0.3,1.1-0.2,2,0,2.2
			c0.1,0.1,1.5,0.5,2.5,1c0.5,0.2,0.8,0.4,1.1,0.5h25.7V24.3H91.2z"/>
	</g>
	<g>
		<defs>
			<rect id="SVGID_49_" x="24.3" y="24.3" width="157.2" height="138.1"/>
		</defs>
		<clipPath id="SVGID_50_">
			<use xlink:href="#SVGID_49_"  style="overflow:visible;"/>
		</clipPath>
		<path class="st25" d="M66.6,33.2c0.2,0,0.5,0,0.5,0.1c-0.1,0.4-0.6,0.5-0.9,0.8H66c-0.1,0.1-0.1,0.3-0.2,0.3s-0.3,0-0.4,0
			c0.2,0.2,0.4,0.3,0.7,0.3c0,0,0.1,0.1,0.1,0.2c0,0,0,0,0.1,0h0.1v0.2c-0.1,0.2-0.4,0.1-0.6,0.1c0.4,0.1,0.7,0.1,1.1,0
			c0.3-0.1,0-0.6,0.2-0.8c-0.1,0,0-0.1-0.1-0.1c0.1-0.1,0.2-0.2,0.3-0.3c0.1,0,0.2,0,0.3-0.1c0-0.1-0.2-0.1-0.1-0.2
			c0.3-0.2,0.5-0.5,0.4-0.7c0-0.1-0.4-0.1-0.6-0.2c-0.2-0.1-0.5,0-0.8,0c-0.2,0-0.5,0.1-0.7,0.2c-0.3,0.1-0.6,0.3-0.9,0.5
			c0.3-0.1,0.6-0.2,1-0.3C66.1,33.2,66.3,33.1,66.6,33.2"/>
	</g>
</g>
</svg>
